<svg width="16" height="16" viewBox="0 0 16 16" fill="none" xmlns="http://www.w3.org/2000/svg">
  <path d="M6.45117 6.07183V8.56788C6.45117 9.4195 7.14155 10.1099 7.99317 10.1099C8.84487 10.1099 9.5353 9.41943 9.5353 8.56773V6.06445H12.1029V8.52212C12.1029 10.7919 10.2629 12.6319 7.99317 12.6319C5.73441 12.6319 3.90332 10.8008 3.90332 8.54203V6.07183H6.45117Z" stroke="currentColor" stroke-width="1.33" stroke-linecap="round" stroke-linejoin="round"/>
  <path d="M3.90332 3.76367C3.90332 3.21139 4.35104 2.76367 4.90332 2.76367H5.45215C6.00443 2.76367 6.45215 3.21139 6.45215 3.76367V6.06445H3.90332V3.76367Z" fill="currentColor" stroke="currentColor" stroke-width="1.33" stroke-linecap="round" stroke-linejoin="round"/>
  <path d="M9.52832 3.76367C9.52832 3.21139 9.97604 2.76367 10.5283 2.76367H11.0771C11.6294 2.76367 12.0771 3.21139 12.0771 3.76367V6.06445H9.52832V3.76367Z" fill="currentColor" stroke="currentColor" stroke-width="1.33" stroke-linecap="round" stroke-linejoin="round"/>
</svg>
